<svg width="1319" height="541" viewBox="0 0 1319 541" fill="none" xmlns="http://www.w3.org/2000/svg">
<g clip-path="url(#clip0_12620_496)">
<g clip-path="url(#clip1_12620_496)">
<path d="M1134.8 175.298C1150.23 181.669 1164.81 189.313 1178.95 198.231C1273.68 256.837 1333.69 371.075 1316.12 480.218C1298.12 591.059 1179.81 748.614 1062.79 771.547C1024.64 779.191 985.628 768.574 948.335 757.108C885.752 737.997 827.026 706.996 765.3 689.159C741.296 682.364 715.148 680.666 692 690.009C651.707 706.146 641.848 740.97 624.702 776.218C605.412 816.138 572.835 849.688 533.399 870.497C452.383 912.965 347.792 893.005 272.777 847.14C161.327 779.191 121.463 645.417 158.327 523.959C167.757 492.533 182.76 461.532 207.622 439.448C250.059 401.227 313.928 394.432 369.653 408.447C408.232 418.214 443.381 436.9 476.816 457.285C504.25 474.272 529.541 497.629 563.404 497.629C631.989 498.054 652.993 410.57 674.854 361.732C703.574 297.181 752.012 240.699 812.023 202.903C908.899 141.324 1029.35 130.707 1134.8 175.298Z" fill="url(#paint0_linear_12620_496)"/>
<path d="M1134.84 175.557C1150.26 181.925 1164.83 189.568 1178.97 198.485C1273.65 257.078 1333.64 371.293 1316.07 480.414C1298.08 591.232 1179.82 748.756 1062.86 771.684C1024.72 779.326 985.734 768.712 948.458 757.248C885.904 738.141 827.206 707.146 765.509 689.313C741.515 682.519 715.38 680.821 692.243 690.162C651.969 706.297 642.114 741.113 624.976 776.354C605.696 816.266 573.133 849.809 533.716 870.614C452.738 913.073 348.195 893.117 273.216 847.261C161.818 779.326 121.972 645.58 158.819 524.147C168.245 492.727 183.241 461.732 208.091 439.653C250.508 401.439 314.347 394.646 370.046 408.658C408.607 418.423 443.74 437.105 477.16 457.486C504.581 474.469 529.859 497.822 563.707 497.822C632.26 498.246 653.254 410.781 675.105 361.952C703.812 297.414 752.227 240.944 812.21 203.155C909.041 141.589 1029.44 130.974 1134.84 175.557Z" fill="url(#paint1_radial_12620_496)"/>
<path d="M125.32 1047.59C-68.4312 902.773 44.7333 583.839 231.198 486.163C301.068 449.641 382.512 435.626 460.956 445.819C531.684 455.161 619.986 478.943 692.429 451.764C747.296 430.955 772.587 379.569 801.307 332.854C881.036 202.903 1082.07 178.696 1181.95 301.853C1218.82 347.293 1233.82 410.57 1215.81 466.203C1173.38 595.305 1031.06 540.097 950.478 609.32C918.329 636.924 909.756 692.132 890.895 729.079C871.606 766.875 848.03 802.973 822.739 837.372C769.586 909.992 704.86 976.242 630.274 1027.63C481.531 1130.4 295.496 1160.98 138.18 1056.93C133.893 1053.96 129.607 1050.99 125.32 1047.59Z" fill="url(#paint2_linear_12620_496)"/>
<path d="M125.32 1047.59C-68.4312 902.773 44.7333 583.839 231.198 486.163C301.068 449.641 382.512 435.626 460.956 445.819C531.684 455.161 619.986 478.943 692.429 451.764C747.296 430.955 772.587 379.569 801.307 332.854C881.036 202.903 1082.07 178.696 1181.95 301.853C1218.82 347.293 1233.82 410.57 1215.81 466.203C1173.38 595.305 1031.06 540.097 950.478 609.32C918.329 636.924 909.756 692.132 890.895 729.079C871.606 766.875 848.03 802.973 822.739 837.372C769.586 909.992 704.86 976.242 630.274 1027.63C481.531 1130.4 295.496 1160.98 138.18 1056.93C133.893 1053.96 129.607 1050.99 125.32 1047.59Z" fill="url(#paint3_radial_12620_496)"/>
</g>
<g clip-path="url(#clip2_12620_496)">
<path d="M2.66545 957.097C-173.644 824.073 -70.667 531.109 99.0119 441.386C162.593 407.837 236.705 394.964 308.087 404.326C372.448 412.909 452.802 434.754 518.723 409.788C568.652 390.673 591.666 343.471 617.8 300.56C690.352 181.19 873.293 158.954 964.179 272.083C997.724 313.824 1011.38 371.948 994.994 423.051C956.377 541.641 826.875 490.928 753.543 554.515C724.288 579.871 716.487 630.584 699.324 664.523C681.771 699.241 660.317 732.4 637.303 763.998C588.935 830.705 530.035 891.56 462.164 938.762C326.811 1033.17 157.522 1061.25 14.3675 965.679C10.4668 962.948 6.56611 960.218 2.66545 957.097Z" fill="url(#paint4_linear_12620_496)"/>
<path d="M2.66545 957.097C-173.644 824.073 -70.667 531.109 99.0119 441.386C162.593 407.837 236.705 394.964 308.087 404.326C372.448 412.909 452.802 434.754 518.723 409.788C568.652 390.673 591.666 343.471 617.8 300.56C690.352 181.19 873.293 158.954 964.179 272.083C997.724 313.824 1011.38 371.948 994.994 423.051C956.377 541.641 826.875 490.928 753.543 554.515C724.288 579.871 716.487 630.584 699.324 664.523C681.771 699.241 660.317 732.4 637.303 763.998C588.935 830.705 530.035 891.56 462.164 938.762C326.811 1033.17 157.522 1061.25 14.3675 965.679C10.4668 962.948 6.56611 960.218 2.66545 957.097Z" fill="url(#paint5_radial_12620_496)"/>
<path d="M95.5 254C75.3416 254 59 237.658 59 217.5C59 197.342 75.3416 181 95.5 181C115.658 181 132 197.342 132 217.5C132 237.658 115.658 254 95.5 254Z" fill="url(#paint6_linear_12620_496)"/>
<path d="M316.5 371C299.103 371 285 356.897 285 339.5C285 322.103 299.103 308 316.5 308C333.897 308 348 322.103 348 339.5C348 356.897 333.897 371 316.5 371Z" fill="url(#paint7_linear_12620_496)"/>
</g>
</g>
<defs>
<linearGradient id="paint0_linear_12620_496" x1="79.3663" y1="908.404" x2="1696.4" y2="16.9998" gradientUnits="userSpaceOnUse">
<stop stop-color="#FF9370"/>
<stop offset="1" stop-color="#FFDF00"/>
</linearGradient>
<radialGradient id="paint1_radial_12620_496" cx="0" cy="0" r="1" gradientUnits="userSpaceOnUse" gradientTransform="translate(737.531 32.791) rotate(79.6257) scale(1313.6 1235.52)">
<stop stop-color="#FEBB40"/>
<stop offset="0.5576" stop-color="#EC4C76"/>
<stop offset="0.9726" stop-color="#D60B52"/>
</radialGradient>
<linearGradient id="paint2_linear_12620_496" x1="1200.45" y1="-318.926" x2="172.503" y2="1340.7" gradientUnits="userSpaceOnUse">
<stop stop-color="#FFDF00"/>
<stop offset="1" stop-color="#FF9370"/>
</linearGradient>
<radialGradient id="paint3_radial_12620_496" cx="0" cy="0" r="1" gradientUnits="userSpaceOnUse" gradientTransform="translate(896.512 293.069) rotate(-122.724) scale(1401.84 2365.81)">
<stop stop-color="#FEBB40"/>
<stop offset="0.5576" stop-color="#EC4C76"/>
<stop offset="0.9726" stop-color="#D60B52"/>
</radialGradient>
<linearGradient id="paint4_linear_12620_496" x1="981.014" y1="-298.149" x2="32.8375" y2="1218.36" gradientUnits="userSpaceOnUse">
<stop stop-color="#FFDF00"/>
<stop offset="1" stop-color="#FF9370"/>
</linearGradient>
<radialGradient id="paint5_radial_12620_496" cx="0" cy="0" r="1" gradientUnits="userSpaceOnUse" gradientTransform="translate(704.435 264.015) rotate(-122.48) scale(1284.19 2158.72)">
<stop stop-color="#FEBB40"/>
<stop offset="0.5576" stop-color="#EC4C76"/>
<stop offset="0.9726" stop-color="#D60B52"/>
</radialGradient>
<linearGradient id="paint6_linear_12620_496" x1="10.2324" y1="277.573" x2="184.273" y2="154.645" gradientUnits="userSpaceOnUse">
<stop stop-color="#EC4C76"/>
<stop offset="0.703531" stop-color="#FEBB40"/>
<stop offset="1" stop-color="white"/>
</linearGradient>
<linearGradient id="paint7_linear_12620_496" x1="242.913" y1="391.344" x2="393.113" y2="285.255" gradientUnits="userSpaceOnUse">
<stop stop-color="#EC4C76"/>
<stop offset="0.5183" stop-color="#FEBB40"/>
<stop offset="1" stop-color="white"/>
</linearGradient>
<clipPath id="clip0_12620_496">
<rect width="1319" height="541" fill="white"/>
</clipPath>
<clipPath id="clip1_12620_496">
<rect width="511" height="393" fill="white" transform="translate(808 148)"/>
</clipPath>
<clipPath id="clip2_12620_496">
<rect width="1178" height="538" fill="white" transform="matrix(-1 0 0 1 1089 102)"/>
</clipPath>
</defs>
</svg>
