<svg xmlns="http://www.w3.org/2000/svg" width="40" height="40" fill="none"><g filter="url(#a)"><g filter="url(#b)"><path fill="#23C2EF" d="M25.849 2a2 2 0 0 0-2 2v1.012a2 2 0 0 0 2 2h3.505l-7.256 7.163a13.026 13.026 0 0 0-7.069-2.069C7.834 12.106 2 17.902 2 25.052 2 32.202 7.834 38 15.029 38s13.028-5.797 13.028-12.948c0-2.718-.842-5.24-2.282-7.322l7.134-7.09v3.422a2 2 0 0 0 2 2h1.044c1.104 0 2-.895 2.003-2 .008-3.252.033-6.815.041-10.063C38 2.895 37.105 2 36 2H25.85Zm-10.82 15.317c4.3 0 7.784 3.463 7.784 7.735 0 4.273-3.485 7.737-7.784 7.737-4.3 0-7.785-3.464-7.785-7.737 0-4.272 3.486-7.735 7.785-7.735Z"/></g></g><defs><filter id="a" width="41" height="45" x="-1" y="-3" color-interpolation-filters="sRGB" filterUnits="userSpaceOnUse"><feFlood flood-opacity="0" result="BackgroundImageFix"/><feBlend in="SourceGraphic" in2="BackgroundImageFix" result="shape"/><feColorMatrix in="SourceAlpha" result="hardAlpha" values="0 0 0 0 0 0 0 0 0 0 0 0 0 0 0 0 0 0 127 0"/><feOffset dy="-3"/><feGaussianBlur stdDeviation="2"/><feComposite in2="hardAlpha" k2="-1" k3="1" operator="arithmetic"/><feColorMatrix values="0 0 0 0 0 0 0 0 0 0 0 0 0 0 0 0 0 0 0.25 0"/><feBlend in2="shape" result="effect1_innerShadow_107_8598"/><feColorMatrix in="SourceAlpha" result="hardAlpha" values="0 0 0 0 0 0 0 0 0 0 0 0 0 0 0 0 0 0 127 0"/><feOffset dx="-1" dy="2"/><feGaussianBlur stdDeviation="1.5"/><feComposite in2="hardAlpha" k2="-1" k3="1" operator="arithmetic"/><feColorMatrix values="0 0 0 0 1 0 0 0 0 1 0 0 0 0 1 0 0 0 0.57 0"/><feBlend in2="effect1_innerShadow_107_8598" result="effect2_innerShadow_107_8598"/></filter><filter id="b" width="36.998" height="41" x="1" y="-1" color-interpolation-filters="sRGB" filterUnits="userSpaceOnUse"><feFlood flood-opacity="0" result="BackgroundImageFix"/><feBlend in="SourceGraphic" in2="BackgroundImageFix" result="shape"/><feColorMatrix in="SourceAlpha" result="hardAlpha" values="0 0 0 0 0 0 0 0 0 0 0 0 0 0 0 0 0 0 127 0"/><feOffset dy="-3"/><feGaussianBlur stdDeviation="2"/><feComposite in2="hardAlpha" k2="-1" k3="1" operator="arithmetic"/><feColorMatrix values="0 0 0 0 0 0 0 0 0 0 0 0 0 0 0 0 0 0 0.25 0"/><feBlend in2="shape" result="effect1_innerShadow_107_8598"/><feColorMatrix in="SourceAlpha" result="hardAlpha" values="0 0 0 0 0 0 0 0 0 0 0 0 0 0 0 0 0 0 127 0"/><feOffset dx="-1" dy="2"/><feGaussianBlur stdDeviation="1.5"/><feComposite in2="hardAlpha" k2="-1" k3="1" operator="arithmetic"/><feColorMatrix values="0 0 0 0 1 0 0 0 0 1 0 0 0 0 1 0 0 0 0.57 0"/><feBlend in2="effect1_innerShadow_107_8598" result="effect2_innerShadow_107_8598"/></filter></defs></svg>