<svg xmlns="http://www.w3.org/2000/svg" width="40" height="40" fill="none"><g filter="url(#a)"><path fill="#FF8787" d="M20 0C12.905 0 7.151 5.753 7.151 12.849c0 5.682 3.691 10.504 8.806 12.199.91.302 1.596 1.11 1.596 2.068v.485a2 2 0 0 1-2 2h-1.51a2 2 0 0 0-2 2v.891a2 2 0 0 0 2 2h1.51a2 2 0 0 1 2 2V38a2 2 0 0 0 2 2h.892a2 2 0 0 0 2-2v-1.508a2 2 0 0 1 2-2h1.51a2 2 0 0 0 2-2v-.891a2 2 0 0 0-2-2h-1.51a2 2 0 0 1-2-2v-2.136c5.925-1.143 10.404-6.357 10.404-12.616C32.849 5.753 27.096 0 20 0Zm0 5.11a7.74 7.74 0 1 1 0 15.478A7.74 7.74 0 0 1 20 5.11Z"/></g><defs><filter id="a" width="41" height="45" x="-1" y="-3" color-interpolation-filters="sRGB" filterUnits="userSpaceOnUse"><feFlood flood-opacity="0" result="BackgroundImageFix"/><feBlend in="SourceGraphic" in2="BackgroundImageFix" result="shape"/><feColorMatrix in="SourceAlpha" result="hardAlpha" values="0 0 0 0 0 0 0 0 0 0 0 0 0 0 0 0 0 0 127 0"/><feOffset dy="-3"/><feGaussianBlur stdDeviation="2"/><feComposite in2="hardAlpha" k2="-1" k3="1" operator="arithmetic"/><feColorMatrix values="0 0 0 0 0 0 0 0 0 0 0 0 0 0 0 0 0 0 0.25 0"/><feBlend in2="shape" result="effect1_innerShadow_107_8596"/><feColorMatrix in="SourceAlpha" result="hardAlpha" values="0 0 0 0 0 0 0 0 0 0 0 0 0 0 0 0 0 0 127 0"/><feOffset dx="-1" dy="2"/><feGaussianBlur stdDeviation="1.5"/><feComposite in2="hardAlpha" k2="-1" k3="1" operator="arithmetic"/><feColorMatrix values="0 0 0 0 1 0 0 0 0 1 0 0 0 0 1 0 0 0 0.57 0"/><feBlend in2="effect1_innerShadow_107_8596" result="effect2_innerShadow_107_8596"/></filter></defs></svg>